<svg width="38" height="36" viewBox="0 0 38 36" fill="none" xmlns="http://www.w3.org/2000/svg">
<g clip-path="url(#clip0)">
<path d="M36.9849 17.7998C36.14 17.7998 35.303 17.7998 34.4451 17.7998C34.2145 17.7998 33.8299 17.7866 33.8299 17.5658C33.8299 16.7434 33.8299 15.9346 33.8299 15.1106C33.8299 14.8898 33.8407 14.5998 33.6101 14.5998C32.7506 14.5998 31.912 14.5998 31.0586 14.5998C30.8276 14.5998 30.4885 14.5314 30.4885 14.3106C30.4885 13.4934 30.4885 12.6906 30.4885 11.8686C30.4885 11.6474 30.4543 11.3998 30.2237 11.3998C29.3664 11.3998 28.5251 11.3998 27.6795 11.3998C27.4489 11.3998 27.1474 11.2886 27.1474 11.0678C27.1474 10.2342 27.1474 9.42254 27.1474 8.61378C27.1474 8.39299 27.0178 8.2158 26.7874 8.21777C25.954 8.22417 25.1004 8.22496 24.2354 8.22496C24.0049 8.22496 23.8065 8.40417 23.8065 8.62496C23.8065 9.45293 23.8065 10.2574 23.8065 11.0574C23.806 11.2789 23.6999 11.3998 23.469 11.3998C20.3338 11.3998 17.2338 11.3998 14.099 11.3998C13.8684 11.3998 13.7824 11.2789 13.7824 11.0582C13.7824 10.245 13.7824 9.43973 13.7824 8.62339C13.7824 8.4026 13.5452 8.22339 13.3146 8.22339C12.458 8.22339 11.654 8.2226 10.8292 8.2162C10.5978 8.21463 10.4411 8.39182 10.4411 8.6126C10.4411 9.42901 10.4411 10.2486 10.4411 11.0894C10.4411 11.3106 10.1441 11.3999 9.9132 11.3999C9.05162 11.3999 8.20669 11.3999 7.34797 11.3999C7.11744 11.3999 7.0999 11.6682 7.0999 11.889C7.0999 12.7118 7.0999 13.5154 7.0999 14.3342C7.0999 14.5554 6.74319 14.5999 6.51266 14.5999C5.65435 14.5999 4.81071 14.5999 3.95622 14.5999C3.72569 14.5999 3.341 14.9131 3.341 15.1342C3.341 15.9542 3.341 16.759 3.341 17.5826C3.341 17.8034 3.35144 17.7998 3.12091 17.7998C2.27222 17.7998 1.43609 17.7998 0.603718 17.7998C0.373189 17.7998 -0.000244141 18.1614 -0.000244141 18.3822C-0.000244141 21.3629 -0.000244141 24.3082 -0.000244141 27.2533C-0.000244141 27.4746 0.373121 27.7997 0.603718 27.7997C1.44237 27.7997 2.27304 27.7997 3.11968 27.7997C3.35021 27.7997 3.34107 27.4737 3.34107 27.2529C3.34107 25.3597 3.34107 23.4861 3.34107 21.6069C3.34107 21.3857 3.72446 21.3997 3.95506 21.3997C4.81876 21.3997 5.66786 21.3997 6.53695 21.3997C6.76748 21.3997 7.09997 21.3861 7.09997 21.6069C7.09997 23.5037 7.09997 25.3873 7.09997 27.2889C7.09997 27.5097 7.21393 27.6886 7.44494 27.6886C8.30195 27.6886 9.16736 27.6897 9.99264 27.6957C10.2232 27.6977 10.4412 27.5205 10.4412 27.2997C10.4412 26.4877 10.4412 25.6753 10.4412 24.8601C10.4412 24.6393 10.493 24.5997 10.7239 24.5997C16.1238 24.5997 21.4895 24.5997 26.8667 24.5997C27.0973 24.5997 27.2843 24.7093 27.2843 24.9301C27.2843 25.751 27.2831 26.5789 27.2765 27.3782C27.2748 27.5993 27.4594 27.7997 27.69 27.7997C28.5302 27.7997 29.3731 27.7997 30.2335 27.7997C30.4636 27.7997 30.4886 27.5077 30.4886 27.2869C30.4886 25.3757 30.4886 23.4989 30.4886 21.6125C30.4886 21.3917 30.8378 21.3997 31.0687 21.3997C31.9396 21.3997 32.7949 21.3997 33.6645 21.3997C33.895 21.3997 34.2475 21.3917 34.2475 21.6125C34.2475 23.5049 34.2475 25.379 34.2475 27.2529C34.2475 27.4737 34.2696 27.7997 34.5002 27.7997C35.3422 27.7997 36.1666 27.7997 36.9843 27.7997C37.2149 27.7997 37.5887 27.4742 37.5887 27.2533C37.5887 24.285 37.5887 21.3377 37.5887 18.3657C37.5889 18.1446 37.2154 17.7998 36.9849 17.7998ZM13.7825 17.5474C13.7825 17.7682 13.521 17.7998 13.2905 17.7998C12.4439 17.7998 11.5973 17.7998 10.739 17.7998C10.5081 17.7998 10.4413 17.7686 10.4413 17.5478C10.4413 16.7403 10.4413 15.9334 10.4413 15.1082C10.4413 14.8874 10.5085 14.5999 10.7395 14.5999C11.5957 14.5999 12.4385 14.5999 13.2901 14.5999C13.5207 14.5999 13.7825 14.8874 13.7825 15.1087C13.7825 15.9218 13.7825 16.7286 13.7825 17.5474ZM27.1475 17.5538C27.1475 17.7746 27.0777 17.7999 26.8472 17.7999C26.0031 17.7999 25.1607 17.7999 24.3003 17.7999C24.0693 17.7999 23.8063 17.7746 23.8063 17.5534C23.8063 16.7358 23.8063 15.929 23.8063 15.1126C23.8063 14.8922 24.0697 14.5998 24.3003 14.5998C25.1502 14.5998 25.9922 14.5998 26.8472 14.5998C27.0777 14.5998 27.1475 14.8918 27.1475 15.1126C27.1475 15.9226 27.1475 16.733 27.1475 17.5538Z" fill="#F6F6FF"/>
<path d="M16.6746 27.7171C16.0461 27.7175 15.4121 27.7183 14.7939 27.7166C13.4423 27.7126 12.0829 27.7071 10.7314 27.7018C10.5009 27.701 10.3116 27.8794 10.3137 28.1007C10.3204 28.9006 10.3192 29.7526 10.3195 30.553C10.3195 30.7738 10.5046 31.0002 10.7351 31.0002C12.7432 31.0002 14.6941 31.0002 16.6429 31.0002C16.8734 30.9998 17.1236 30.7254 17.1236 30.5046C17.1236 29.707 17.1236 28.919 17.1236 28.1175C17.1236 27.8962 16.9051 27.7166 16.6746 27.7171Z" fill="#F6F6FF"/>
<path d="M27.0137 27.7083C26.949 27.7131 26.9139 27.7575 26.8479 27.7575C24.8593 27.7587 22.9023 27.7999 20.9138 27.7999C20.8504 27.7999 20.7868 27.7999 20.7246 27.7999C20.6202 27.7999 20.4653 27.8959 20.4653 28.1167C20.4653 28.9331 20.4653 29.7223 20.4653 30.5099C20.4653 30.7307 20.7226 30.9999 20.9536 30.9999C22.9185 30.9999 24.8685 30.9999 26.8557 30.9999C27.0863 30.9999 27.1478 30.7303 27.1478 30.5095C27.1478 29.6955 27.1478 28.8906 27.1478 28.087C27.1478 27.8663 27.1228 27.7002 27.0137 27.7083Z" fill="#F6F6FF"/>
<path d="M7.38506 8.19985C8.2348 8.19985 9.0745 8.19985 9.91346 8.19985C10.1439 8.19985 10.3285 8.02704 10.3269 7.80626C10.3202 7.00626 10.3194 6.20103 10.3189 5.40064C10.3189 5.17985 10.1319 5.00024 9.90097 5.00024C9.03534 5.00024 8.20812 5.00024 7.38513 5.00024C7.15465 4.99985 7.10034 5.18626 7.10034 5.40743C7.10034 6.20743 7.10034 6.99907 7.10034 7.81306C7.10027 8.03378 7.15452 8.19985 7.38506 8.19985Z" fill="#F6F6FF"/>
<path d="M27.628 8.22145C28.4631 8.21505 29.2691 8.21426 30.1047 8.21387C30.3355 8.21387 30.4879 8.03426 30.4879 7.81348C30.4879 6.98387 30.4879 6.19151 30.4879 5.40269C30.4879 5.1819 30.432 4.99988 30.2016 4.99988C29.3672 4.99988 28.5409 4.99988 27.691 4.99988C27.4606 4.99988 27.1475 5.18262 27.1475 5.40347C27.1475 6.21746 27.1475 7.0223 27.1475 7.82583C27.1475 8.04662 27.3975 8.22341 27.628 8.22145Z" fill="#F6F6FF"/>
</g>
<defs>
<clipPath id="clip0">
<rect width="37.5891" height="36" fill="white"/>
</clipPath>
</defs>
</svg>
