<svg width="38" height="36" viewBox="0 0 38 36" fill="none" xmlns="http://www.w3.org/2000/svg">
<g clip-path="url(#clip0)">
<path d="M36.9849 17.7997C36.14 17.7997 35.303 17.7997 34.4451 17.7997C34.2145 17.7997 33.8299 17.7865 33.8299 17.5657C33.8299 16.7433 33.8299 15.9344 33.8299 15.1105C33.8299 14.8897 33.8407 14.5997 33.6101 14.5997C32.7506 14.5997 31.912 14.5997 31.0586 14.5997C30.8276 14.5997 30.4885 14.5312 30.4885 14.3105C30.4885 13.4933 30.4885 12.6905 30.4885 11.8684C30.4885 11.6473 30.4543 11.3997 30.2237 11.3997C29.3664 11.3997 28.5251 11.3997 27.6795 11.3997C27.4489 11.3997 27.1474 11.2884 27.1474 11.0676C27.1474 10.2341 27.1474 9.42242 27.1474 8.61366C27.1474 8.39287 27.0178 8.21568 26.7874 8.21764C25.954 8.22405 25.1004 8.22483 24.2354 8.22483C24.0049 8.22483 23.8065 8.40405 23.8065 8.62483C23.8065 9.45281 23.8065 10.2573 23.8065 11.0573C23.806 11.2788 23.6999 11.3997 23.469 11.3997C20.3338 11.3997 17.2338 11.3997 14.099 11.3997C13.8684 11.3997 13.7824 11.2788 13.7824 11.058C13.7824 10.2448 13.7824 9.4396 13.7824 8.62326C13.7824 8.40248 13.5452 8.22326 13.3146 8.22326C12.458 8.22326 11.654 8.22248 10.8292 8.21607C10.5978 8.21451 10.4411 8.3917 10.4411 8.61248C10.4411 9.42889 10.4411 10.2485 10.4411 11.0893C10.4411 11.3105 10.1441 11.3997 9.9132 11.3997C9.05162 11.3997 8.20669 11.3997 7.34797 11.3997C7.11744 11.3997 7.0999 11.6681 7.0999 11.8889C7.0999 12.7117 7.0999 13.5153 7.0999 14.3341C7.0999 14.5553 6.74319 14.5997 6.51266 14.5997C5.65435 14.5997 4.81071 14.5997 3.95622 14.5997C3.72569 14.5997 3.341 14.9129 3.341 15.1341C3.341 15.9541 3.341 16.7589 3.341 17.5825C3.341 17.8033 3.35144 17.7997 3.12091 17.7997C2.27222 17.7997 1.43609 17.7997 0.603718 17.7997C0.373189 17.7997 -0.000244141 18.1612 -0.000244141 18.382C-0.000244141 21.3628 -0.000244141 24.308 -0.000244141 27.2532C-0.000244141 27.4745 0.373121 27.7996 0.603718 27.7996C1.44237 27.7996 2.27304 27.7996 3.11968 27.7996C3.35021 27.7996 3.34107 27.4736 3.34107 27.2528C3.34107 25.3596 3.34107 23.486 3.34107 21.6068C3.34107 21.3856 3.72446 21.3996 3.95506 21.3996C4.81876 21.3996 5.66786 21.3996 6.53695 21.3996C6.76748 21.3996 7.09997 21.386 7.09997 21.6068C7.09997 23.5036 7.09997 25.3872 7.09997 27.2888C7.09997 27.5096 7.21393 27.6884 7.44494 27.6884C8.30195 27.6884 9.16736 27.6896 9.99264 27.6956C10.2232 27.6976 10.4412 27.5204 10.4412 27.2995C10.4412 26.4876 10.4412 25.6752 10.4412 24.86C10.4412 24.6392 10.493 24.5996 10.7239 24.5996C16.1238 24.5996 21.4895 24.5996 26.8667 24.5996C27.0973 24.5996 27.2843 24.7092 27.2843 24.93C27.2843 25.7509 27.2831 26.5788 27.2765 27.378C27.2748 27.5992 27.4594 27.7996 27.69 27.7996C28.5302 27.7996 29.3731 27.7996 30.2335 27.7996C30.4636 27.7996 30.4886 27.5076 30.4886 27.2868C30.4886 25.3756 30.4886 23.4988 30.4886 21.6124C30.4886 21.3916 30.8378 21.3996 31.0687 21.3996C31.9396 21.3996 32.7949 21.3996 33.6645 21.3996C33.895 21.3996 34.2475 21.3916 34.2475 21.6124C34.2475 23.5048 34.2475 25.3788 34.2475 27.2528C34.2475 27.4736 34.2696 27.7996 34.5002 27.7996C35.3422 27.7996 36.1666 27.7996 36.9843 27.7996C37.2149 27.7996 37.5887 27.4741 37.5887 27.2532C37.5887 24.2848 37.5887 21.3376 37.5887 18.3656C37.5889 18.1445 37.2154 17.7997 36.9849 17.7997ZM13.7825 17.5473C13.7825 17.7681 13.521 17.7997 13.2905 17.7997C12.4439 17.7997 11.5973 17.7997 10.739 17.7997C10.5081 17.7997 10.4413 17.7684 10.4413 17.5477C10.4413 16.7401 10.4413 15.9333 10.4413 15.1081C10.4413 14.8873 10.5085 14.5997 10.7395 14.5997C11.5957 14.5997 12.4385 14.5997 13.2901 14.5997C13.5207 14.5997 13.7825 14.8873 13.7825 15.1086C13.7825 15.9217 13.7825 16.7285 13.7825 17.5473ZM27.1475 17.5537C27.1475 17.7745 27.0777 17.7997 26.8472 17.7997C26.0031 17.7997 25.1607 17.7997 24.3003 17.7997C24.0693 17.7997 23.8063 17.7745 23.8063 17.5533C23.8063 16.7357 23.8063 15.9289 23.8063 15.1125C23.8063 14.8921 24.0697 14.5997 24.3003 14.5997C25.1502 14.5997 25.9922 14.5997 26.8472 14.5997C27.0777 14.5997 27.1475 14.8916 27.1475 15.1125C27.1475 15.9225 27.1475 16.7329 27.1475 17.5537Z" fill="#565656"/>
<path d="M16.6746 27.717C16.0461 27.7173 15.4121 27.7181 14.7939 27.7165C13.4423 27.7125 12.0829 27.707 10.7314 27.7017C10.5009 27.7009 10.3116 27.8793 10.3137 28.1005C10.3204 28.9005 10.3192 29.7525 10.3195 30.5529C10.3195 30.7737 10.5046 31.0001 10.7351 31.0001C12.7432 31.0001 14.6941 31.0001 16.6429 31.0001C16.8734 30.9997 17.1236 30.7253 17.1236 30.5045C17.1236 29.7069 17.1236 28.9189 17.1236 28.1173C17.1236 27.8961 16.9051 27.7165 16.6746 27.717Z" fill="#565656"/>
<path d="M27.0137 27.708C26.949 27.7128 26.9139 27.7573 26.8479 27.7573C24.8593 27.7584 22.9023 27.7996 20.9138 27.7996C20.8504 27.7996 20.7868 27.7996 20.7246 27.7996C20.6202 27.7996 20.4653 27.8956 20.4653 28.1164C20.4653 28.9328 20.4653 29.722 20.4653 30.5096C20.4653 30.7304 20.7226 30.9996 20.9536 30.9996C22.9185 30.9996 24.8685 30.9996 26.8557 30.9996C27.0863 30.9996 27.1478 30.73 27.1478 30.5092C27.1478 29.6952 27.1478 28.8904 27.1478 28.0868C27.1478 27.866 27.1228 27.7 27.0137 27.708Z" fill="#565656"/>
<path d="M7.38506 8.19985C8.2348 8.19985 9.0745 8.19985 9.91346 8.19985C10.1439 8.19985 10.3285 8.02704 10.3269 7.80626C10.3202 7.00626 10.3194 6.20103 10.3189 5.40064C10.3189 5.17985 10.1319 5.00024 9.90097 5.00024C9.03534 5.00024 8.20812 5.00024 7.38513 5.00024C7.15465 4.99985 7.10034 5.18626 7.10034 5.40743C7.10034 6.20743 7.10034 6.99907 7.10034 7.81306C7.10027 8.03378 7.15452 8.19985 7.38506 8.19985Z" fill="#565656"/>
<path d="M27.628 8.22133C28.4631 8.21493 29.2691 8.21414 30.1047 8.21375C30.3355 8.21375 30.4879 8.03414 30.4879 7.81336C30.4879 6.98375 30.4879 6.19139 30.4879 5.40257C30.4879 5.18178 30.432 4.99976 30.2016 4.99976C29.3672 4.99976 28.5409 4.99976 27.691 4.99976C27.4606 4.99976 27.1475 5.1825 27.1475 5.40335C27.1475 6.21734 27.1475 7.02218 27.1475 7.82571C27.1475 8.04649 27.3975 8.22329 27.628 8.22133Z" fill="#565656"/>
</g>
<defs>
<clipPath id="clip0">
<rect width="37.5891" height="36" fill="white"/>
</clipPath>
</defs>
</svg>
