<svg width="15" height="15" viewBox="0 0 15 15" fill="none" xmlns="http://www.w3.org/2000/svg">
<g clip-path="url(#clip0)">
<path d="M14.9084 13.4637L10.5511 9.28059C11.3775 8.30108 11.875 7.05582 11.875 5.70002C11.875 2.55705 9.21142 0 5.93749 0C2.66356 0 0 2.55705 0 5.70002C0 8.843 2.66359 11.4 5.93752 11.4C7.34981 11.4 8.64696 10.9224 9.66729 10.129L14.0247 14.3121C14.1 14.4 14.3446 14.4293 14.4667 14.3121L14.7 14.112L14.9085 13.888C15 13.824 15.0305 13.5808 14.9084 13.4637ZM5.93752 10.2C3.35268 10.2 1.25001 8.18147 1.25001 5.70002C1.25001 3.21858 3.35268 1.20001 5.93752 1.20001C8.52236 1.20001 10.625 3.21858 10.625 5.70002C10.625 8.18147 8.52236 10.2 5.93752 10.2Z" fill="#F6F6FF"/>
</g>
<defs>
<clipPath id="clip0">
<rect width="15" height="14.4" rx="2" fill="white"/>
</clipPath>
</defs>
</svg>
