<svg width="25" height="24" viewBox="0 0 25 24" fill="none" xmlns="http://www.w3.org/2000/svg">
<path d="M24.8474 22.4395L17.5851 15.4677C18.9625 13.8351 19.7917 11.7597 19.7917 9.50004C19.7917 4.26174 15.3524 0 9.89582 0C4.43927 0 0 4.26174 0 9.50004C0 14.7383 4.43932 19.0001 9.89587 19.0001C12.2497 19.0001 14.4116 18.204 16.1121 16.8817L23.3745 23.8536C23.5 24 23.9076 24.0488 24.1111 23.8536L24.5 23.52L24.8475 23.1466C25 23.04 25.0508 22.6347 24.8474 22.4395ZM9.89587 17C5.5878 17 2.08335 13.6358 2.08335 9.50004C2.08335 5.36429 5.5878 2.00002 9.89587 2.00002C14.2039 2.00002 17.7084 5.36429 17.7084 9.50004C17.7084 13.6358 14.2039 17 9.89587 17Z" fill="#858585"/>
</svg>
